<svg width="17" height="18" viewBox="0 0 17 18" fill="none" xmlns="http://www.w3.org/2000/svg">
<path d="M0.400004 9.00092C0.399573 9.10043 0.438622 9.19629 0.508757 9.26709L0.509247 9.26758L0.963476 9.71985L1.50434 16.7534L1.50435 16.7535C1.51962 16.949 1.68273 17.0998 1.87871 17.1H1.8788H7.94708H7.94717C8.14322 17.0998 8.3061 16.9489 8.32152 16.7536L8.32154 16.7534L8.86228 9.71986L9.12824 9.45516C9.94285 10.0962 10.9696 10.48 12.085 10.48C14.6885 10.48 16.79 8.38784 16.8525 5.80057L16.8525 5.79868C16.8527 5.77198 16.8531 5.74305 16.8536 5.71381C16.8544 5.67036 16.8551 5.62621 16.8547 5.5876L16.8547 5.58629C16.7977 3.07618 14.8196 1.03076 12.3262 0.906155L12.3326 0.9H12.0851C9.56949 0.9 7.50831 2.84893 7.31597 5.31533L0.77488 5.31533L0.774474 5.31533C0.567961 5.31617 0.400846 5.48329 0.400004 5.6898V5.69021V9.00092ZM0.400004 9.00092C0.400004 9.00083 0.400004 9.00074 0.400005 9.00065L0.500004 9.00116H0.400004V9.00092ZM12.0694 1.65235C9.84322 1.66081 8.04723 3.46204 8.04723 5.69022C8.04723 5.82976 8.05444 5.96763 8.06827 6.1035C8.12427 6.64882 8.29046 7.17407 8.55352 7.64864L8.55368 7.64893C8.55434 7.65012 8.55543 7.6519 8.55863 7.65681C8.5612 7.66075 8.56611 7.66817 8.57068 7.67619L8.57086 7.6765C8.63151 7.78386 8.69677 7.88853 8.76699 7.98996C8.77185 7.99693 8.77721 8.00405 8.78367 8.01254L8.78586 8.01542C8.79158 8.02294 8.79825 8.03169 8.80471 8.04066L8.80489 8.0409C8.86928 8.13088 8.93553 8.21832 9.00623 8.30165L9.00632 8.30176C9.02066 8.31872 9.03338 8.33228 9.04767 8.34751L12.0694 1.65235ZM12.0694 1.65235H12.0851C14.3184 1.65235 16.123 3.45682 16.123 5.69025C16.123 7.92355 14.3184 9.72814 12.0851 9.72814C10.9966 9.72814 10.0122 9.29746 9.28637 8.5992C9.21592 8.53136 9.1492 8.45955 9.08247 8.38527L12.0694 1.65235ZM8.23267 9.28681L8.23224 9.28724C8.16948 9.35051 8.13122 9.43407 8.12435 9.52299L8.12434 9.52304L7.60027 16.3502H2.22574L1.70154 9.52304L1.70154 9.52298C1.69466 9.43407 1.65641 9.35052 1.59365 9.28724L1.59336 9.28696L1.15233 8.84593L1.15232 6.06705H7.31601C7.40268 7.17413 7.86381 8.17567 8.57685 8.94405L8.23267 9.28681Z" fill="white" stroke="white" stroke-width="0.2"/>
<path d="M3.2448 9.27814C3.0932 9.28541 2.97596 9.41373 2.98237 9.56533L3.25712 15.359H3.25724C3.26069 15.4322 3.29308 15.5008 3.34726 15.55C3.40145 15.5993 3.47288 15.6249 3.54603 15.6214C3.61918 15.618 3.68803 15.5857 3.73741 15.5315C3.78667 15.4774 3.81241 15.4058 3.80896 15.3327L3.53408 9.53897C3.52596 9.38725 3.39665 9.27063 3.2448 9.27826L3.2448 9.27814Z" fill="white"/>
<path d="M6.55738 9.2775C6.55024 9.2775 6.5431 9.27762 6.53583 9.27811C6.40233 9.29425 6.29987 9.40447 6.29347 9.53882L6.0165 15.3325C6.01293 15.4057 6.03879 15.4772 6.08805 15.5314C6.13743 15.5856 6.20628 15.6179 6.27943 15.6213C6.35258 15.6247 6.42401 15.5991 6.4782 15.5499C6.53238 15.5006 6.56477 15.432 6.56822 15.3589L6.84297 9.56518C6.84937 9.41358 6.73213 9.28526 6.58066 9.27799C6.5729 9.2775 6.56514 9.27725 6.5575 9.27738L6.55738 9.2775Z" fill="white"/>
<path d="M4.9127 9.27567C4.83942 9.27604 4.76922 9.30535 4.71775 9.35744C4.66615 9.40954 4.63745 9.47998 4.63782 9.55313V15.3462C4.63844 15.4978 4.7611 15.6204 4.9127 15.6211C4.98585 15.6214 5.05629 15.5927 5.10838 15.5411C5.16048 15.4897 5.18979 15.4195 5.19016 15.3462V9.55313C5.19053 9.47949 5.16146 9.40867 5.10937 9.35646C5.05716 9.30436 4.98634 9.2753 4.9127 9.27567Z" fill="white"/>
<path d="M11.8104 2.3809C11.7372 2.38065 11.667 2.40947 11.615 2.46095C11.5631 2.51255 11.5338 2.58262 11.5335 2.65578V5.96704C11.5338 6.04019 11.5631 6.11027 11.615 6.16187C11.667 6.21334 11.7372 6.24216 11.8104 6.24191H13.7409C13.814 6.24216 13.8843 6.21334 13.9362 6.16187C13.9882 6.11027 14.0175 6.04019 14.0178 5.96704C14.0181 5.89352 13.989 5.82295 13.937 5.77098C13.885 5.71889 13.8144 5.68982 13.7409 5.69019H12.0852V2.65574C12.0846 2.50414 11.9619 2.38148 11.8103 2.38086L11.8104 2.3809Z" fill="white"/>
<path d="M6.57432 1.00063C6.56225 1.00038 6.55018 1.00087 6.53824 1.00223C6.49846 1.00691 6.46028 1.02008 6.42617 1.04102C6.36349 1.07883 6.31841 1.13991 6.3008 1.21097C6.28319 1.28203 6.29464 1.35715 6.33245 1.41971C6.51644 1.72624 6.54735 1.92944 6.52801 2.10986C6.50868 2.29041 6.42568 2.46331 6.32223 2.67019C6.21878 2.87707 6.09378 3.11737 6.0614 3.41968C6.02901 3.72189 6.10253 4.07102 6.33245 4.45414C6.41127 4.58455 6.58085 4.62618 6.71115 4.54736C6.77384 4.50955 6.81891 4.44847 6.83652 4.37741C6.85413 4.30635 6.8428 4.23123 6.805 4.16867C6.62101 3.86214 6.5901 3.65895 6.60943 3.47852C6.62877 3.29798 6.71177 3.12557 6.81522 2.91866C6.91866 2.71175 7.04305 2.47149 7.07544 2.16918C7.10782 1.86696 7.0348 1.51783 6.805 1.13472C6.75623 1.05332 6.66916 1.0027 6.57433 1.00061L6.57432 1.00063Z" fill="white"/>
<path d="M4.91874 1.00063C4.90667 1.00038 4.89461 1.00087 4.88266 1.00223C4.84288 1.00691 4.8047 1.02008 4.77059 1.04102C4.70791 1.07883 4.66283 1.13991 4.64522 1.21097C4.62761 1.28203 4.63894 1.35715 4.67675 1.41971C4.86074 1.72624 4.89165 1.92944 4.87231 2.10986C4.85298 2.29041 4.76997 2.46331 4.66653 2.67019C4.56308 2.87707 4.43808 3.11737 4.40569 3.41968C4.37331 3.72189 4.44683 4.07102 4.67675 4.45414C4.75569 4.58455 4.92527 4.62618 5.05558 4.54736C5.11826 4.50955 5.16334 4.44847 5.18095 4.37741C5.19856 4.30635 5.18711 4.23123 5.1493 4.16867C4.96531 3.86214 4.93649 3.65895 4.95583 3.47852C4.97516 3.29798 5.05607 3.12557 5.15952 2.91866C5.26297 2.71175 5.38797 2.47149 5.42035 2.16918C5.45274 1.86696 5.37922 1.51783 5.1493 1.13472C5.10065 1.05332 5.01358 1.0027 4.91876 1.00061L4.91874 1.00063Z" fill="white"/>
<path d="M3.26288 1.00063C3.25081 1.00038 3.23887 1.00087 3.2268 1.00223C3.18788 1.00715 3.15032 1.02033 3.11695 1.04102C3.05389 1.07846 3.00833 1.13942 2.99035 1.21048C2.97237 1.28154 2.98333 1.35678 3.02101 1.41971C3.205 1.72624 3.23591 1.92944 3.21658 2.10986C3.19724 2.29041 3.11424 2.46331 3.01079 2.67019C2.90735 2.87707 2.78296 3.11737 2.75057 3.41968C2.71819 3.72189 2.79121 4.07102 3.02101 4.45414C3.09983 4.58455 3.26941 4.62618 3.39984 4.54736C3.46252 4.50955 3.5076 4.44847 3.52509 4.37741C3.5427 4.30635 3.53137 4.23123 3.49356 4.16867C3.30957 3.86214 3.28075 3.65895 3.30009 3.47852C3.31942 3.29798 3.40243 3.12557 3.50587 2.91866C3.60932 2.71175 3.7321 2.47149 3.76449 2.16918C3.79688 1.86696 3.72336 1.51783 3.49343 1.13472H3.49356C3.44479 1.05332 3.35772 1.0027 3.26289 1.00061L3.26288 1.00063Z" fill="white"/>
</svg>
