<svg width="16" height="20" viewBox="0 0 16 20" fill="none" xmlns="http://www.w3.org/2000/svg">
<path d="M9.17109 5.52621V5.57621H9.22109H10.1138H10.1638V5.52621V2.88063C10.1638 1.81838 9.34303 0.95 8.32837 0.95H2.78545C1.77079 0.95 0.95 1.81838 0.95 2.88063V17.1194C0.95 18.1812 1.77078 19.05 2.78545 19.05H8.32837C9.34303 19.05 10.1638 18.1812 10.1638 17.1194V14.4738V14.4238H10.1138H9.66747H9.66745L9.22111 14.4236L9.17109 14.4236V14.4736V14.4743V17.1198C9.17109 17.6137 8.79074 18.0102 8.32837 18.0102H2.78545C2.32308 18.0102 1.94272 17.6137 1.94272 17.1198V2.88063C1.94272 2.38714 2.32309 1.99032 2.78545 1.99032H8.32837C8.79072 1.99032 9.17109 2.38713 9.17109 2.88063V5.52621Z" fill="white" stroke="white" stroke-width="0.1"/>
<path d="M3.46462 10.5351L3.42964 10.4998L3.46462 10.4646L7.93262 5.96477L8.0181 5.87868V6V8.36417H15.0981H15.1481V8.41417V12.5858V12.6358H15.0981H8.0181V15V15.1213L7.93262 15.0352L3.46462 10.5351ZM4.41614 10.4998L7.32009 13.4244V11.9836V11.9336H7.37009L14.4501 11.9337V9.06636H7.37009H7.32009V9.01636V7.57527L4.41614 10.4998Z" fill="white" stroke="white" stroke-width="0.1"/>
</svg>
