<svg width="23" height="16" viewBox="0 0 23 16" fill="none" xmlns="http://www.w3.org/2000/svg">
<path d="M16.0739 11.9H1.92602C1.56907 11.9 1.30926 12.1193 1.14389 12.4206C0.979308 12.7206 0.900025 13.1133 0.9 13.5C0.899975 13.8867 0.979209 14.2794 1.14378 14.5794C1.30915 14.8807 1.56898 15.1 1.92602 15.1H16.0739C16.4309 15.1 16.6907 14.8807 16.8561 14.5794C17.0207 14.2794 17.1 13.8867 17.1 13.5C17.1 13.1133 17.0208 12.7206 16.8562 12.4206C16.6908 12.1193 16.4309 11.9 16.0739 11.9ZM16.0739 14.0429H1.92602C1.8421 14.0429 1.7712 13.9944 1.71607 13.8939C1.66016 13.792 1.62915 13.649 1.62913 13.5C1.62911 13.351 1.66008 13.208 1.71598 13.1061C1.77109 13.0057 1.842 12.9571 1.92602 12.9571H16.0739C16.1579 12.9571 16.2288 13.0057 16.2839 13.1061C16.3399 13.208 16.3709 13.351 16.3709 13.5C16.3709 13.649 16.3399 13.792 16.284 13.8939C16.2289 13.9943 16.1579 14.0429 16.0739 14.0429Z" fill="white" stroke="white" stroke-width="0.2"/>
<path d="M19.1516 0.900143H1.30177C0.784077 0.900143 0.373305 1.33738 0.401353 1.85227L19.1516 0.900143ZM19.1516 0.900143L19.1517 0.9C19.7668 0.9 20.4832 1.22216 21.031 1.77898C21.5811 2.33809 21.968 3.14057 21.9131 4.10886M19.1516 0.900143L16.3102 5.33765C16.2942 5.3778 16.2781 5.41772 16.2619 5.45741M21.9131 4.10886L21.8133 4.1032L21.9131 4.10882C21.9131 4.10883 21.9131 4.10885 21.9131 4.10886ZM21.9131 4.10886C21.7445 7.10189 17.7336 8.05653 16.2619 5.45741M16.2619 5.45741C15.5537 7.19186 14.6141 8.48375 13.4044 9.35151C12.1476 10.2531 10.6081 10.6904 8.75399 10.7001L16.2002 5.3434C16.2202 5.38213 16.2408 5.42013 16.2619 5.45741ZM21.1831 4.04128L21.1817 4.06757C21.1095 5.34734 20.1456 6.10621 19.1096 6.21917C18.0756 6.33189 16.9847 5.79944 16.6572 4.49526C16.554 4.08423 15.9893 4.07164 15.8545 4.45906L15.8545 4.45917C15.1939 6.36597 14.3156 7.73558 13.1587 8.63158C12.003 9.52671 10.5588 9.95715 8.75048 9.96659L8.7503 9.96659C6.32759 9.98353 4.4944 9.16384 3.23225 7.73832C1.96791 6.31032 1.2673 4.26377 1.13429 1.81224L1.13428 1.81213C1.12888 1.71454 1.20637 1.63324 1.30229 1.63324H7.05269V2.4998H5.81937C5.47006 2.4998 5.18609 2.78378 5.18609 3.13308V7.39978C5.18609 7.74909 5.47007 8.03306 5.81937 8.03306H10.0861C10.4354 8.03306 10.7194 7.74908 10.7194 7.39978L10.7192 3.13327C10.7192 2.78396 10.4352 2.49999 10.0859 2.49999H8.85257V1.63343H19.1334C20.3442 1.76252 21.2392 2.81342 21.1831 4.04128ZM8.53881 3.23349H9.98545V7.3002L5.91875 7.30002V3.2335H7.3654C7.59722 3.2335 7.78533 3.04488 7.78534 2.81358C7.78534 2.81357 7.78534 2.81357 7.78534 2.81356L7.78551 1.63344H8.1188V2.81337C8.1188 3.0449 8.30731 3.23349 8.53874 3.23349H8.53881Z" fill="white" stroke="white" stroke-width="0.2"/>
</svg>
