<svg width="19" height="18" viewBox="0 0 19 18" fill="none" xmlns="http://www.w3.org/2000/svg">
<mask id="path-1-inside-1_82_112" fill="white">
<path d="M8.72109 13.4743V16.1198C8.72109 16.6388 8.32076 17.0602 7.82837 17.0602H2.28545C1.79307 17.0602 1.39272 16.6388 1.39272 16.1198V1.88063C1.39272 1.362 1.79306 0.940316 2.28545 0.940316H7.82837C8.32075 0.940316 8.72109 1.36199 8.72109 1.88063V4.52621H9.61382V1.88063C9.61382 0.843511 8.813 0 7.82837 0H2.28545C1.30082 0 0.5 0.843511 0.5 1.88063V16.1194C0.5 17.1561 1.30082 18 2.28545 18H7.82837C8.813 18 9.61382 17.1561 9.61382 16.1194V13.4738H9.16745L8.72109 13.4736V13.4743Z"/>
</mask>
<path d="M8.72109 13.4743V16.1198C8.72109 16.6388 8.32076 17.0602 7.82837 17.0602H2.28545C1.79307 17.0602 1.39272 16.6388 1.39272 16.1198V1.88063C1.39272 1.362 1.79306 0.940316 2.28545 0.940316H7.82837C8.32075 0.940316 8.72109 1.36199 8.72109 1.88063V4.52621H9.61382V1.88063C9.61382 0.843511 8.813 0 7.82837 0H2.28545C1.30082 0 0.5 0.843511 0.5 1.88063V16.1194C0.5 17.1561 1.30082 18 2.28545 18H7.82837C8.813 18 9.61382 17.1561 9.61382 16.1194V13.4738H9.16745L8.72109 13.4736V13.4743Z" fill="white"/>
<path d="M8.72109 4.52621H7.22109V6.02621H8.72109V4.52621ZM9.61382 4.52621V6.02621H11.1138V4.52621H9.61382ZM9.61382 13.4738H11.1138V11.9738H9.61382V13.4738ZM9.16745 13.4738L9.16684 14.9738H9.16745V13.4738ZM8.72109 13.4736L8.72171 11.9736L7.22109 11.973V13.4736H8.72109ZM7.22109 13.4743V16.1198H10.2211V13.4743H7.22109ZM7.22109 16.1198C7.22109 15.8844 7.42024 15.5602 7.82837 15.5602V18.5602C9.22127 18.5602 10.2211 17.3933 10.2211 16.1198H7.22109ZM7.82837 15.5602H2.28545V18.5602H7.82837V15.5602ZM2.28545 15.5602C2.69357 15.5602 2.89272 15.8844 2.89272 16.1198H-0.107276C-0.107276 17.3933 0.892564 18.5602 2.28545 18.5602V15.5602ZM2.89272 16.1198V1.88063H-0.107276V16.1198H2.89272ZM2.89272 1.88063C2.89272 2.11605 2.69395 2.44032 2.28545 2.44032V-0.559684C0.892161 -0.559684 -0.107276 0.607949 -0.107276 1.88063H2.89272ZM2.28545 2.44032H7.82837V-0.559684H2.28545V2.44032ZM7.82837 2.44032C7.41987 2.44032 7.22109 2.11606 7.22109 1.88063H10.2211C10.2211 0.60792 9.22163 -0.559684 7.82837 -0.559684V2.44032ZM7.22109 1.88063V4.52621H10.2211V1.88063H7.22109ZM8.72109 6.02621H9.61382V3.02621H8.72109V6.02621ZM11.1138 4.52621V1.88063H8.11382V4.52621H11.1138ZM11.1138 1.88063C11.1138 0.0894485 9.71388 -1.5 7.82837 -1.5V1.5C7.87933 1.5 7.94107 1.51947 8.0025 1.58417C8.06512 1.65013 8.11382 1.75215 8.11382 1.88063H11.1138ZM7.82837 -1.5H2.28545V1.5H7.82837V-1.5ZM2.28545 -1.5C0.399932 -1.5 -1 0.0894485 -1 1.88063H2C2 1.75215 2.0487 1.65013 2.11132 1.58417C2.17275 1.51947 2.23449 1.5 2.28545 1.5V-1.5ZM-1 1.88063V16.1194H2V1.88063H-1ZM-1 16.1194C-1 17.91 0.399742 19.5 2.28545 19.5V16.5C2.23469 16.5 2.17294 16.4806 2.11139 16.4158C2.04863 16.3497 2 16.2476 2 16.1194H-1ZM2.28545 19.5H7.82837V16.5H2.28545V19.5ZM7.82837 19.5C9.71407 19.5 11.1138 17.91 11.1138 16.1194H8.11382C8.11382 16.2476 8.06518 16.3497 8.00242 16.4158C7.94088 16.4806 7.87912 16.5 7.82837 16.5V19.5ZM11.1138 16.1194V13.4738H8.11382V16.1194H11.1138ZM9.61382 11.9738H9.16745V14.9738H9.61382V11.9738ZM9.16807 11.9738L8.72171 11.9736L8.72047 14.9736L9.16684 14.9738L9.16807 11.9738ZM7.22109 13.4736V13.4743H10.2211V13.4736H7.22109Z" fill="white" mask="url(#path-1-inside-1_82_112)"/>
<mask id="path-3-inside-2_82_112" fill="white">
<path d="M18.4999 9.0001L11.8299 1.97359V5.74331H5.06439V12.2574H11.8299V16.0271L18.4999 9.0001ZM5.95712 11.3171V6.68363H12.7226V4.24393L17.2376 9.00005L12.7226 13.7562V11.317L5.95712 11.3171Z"/>
</mask>
<path d="M18.4999 9.0001L11.8299 1.97359V5.74331H5.06439V12.2574H11.8299V16.0271L18.4999 9.0001ZM5.95712 11.3171V6.68363H12.7226V4.24393L17.2376 9.00005L12.7226 13.7562V11.317L5.95712 11.3171Z" fill="white"/>
<path d="M18.4999 9.0001L19.5878 10.0328L20.5681 9.00006L19.5878 7.9674L18.4999 9.0001ZM11.8299 1.97359L12.9178 0.940886L10.3299 -1.78534V1.97359H11.8299ZM11.8299 5.74331V7.24331H13.3299V5.74331H11.8299ZM5.06439 5.74331V4.24331H3.56439V5.74331H5.06439ZM5.06439 12.2574H3.56439V13.7574H5.06439V12.2574ZM11.8299 12.2574H13.3299V10.7574H11.8299V12.2574ZM11.8299 16.0271H10.3299V19.7862L12.9178 17.0597L11.8299 16.0271ZM5.95712 11.3171H4.45712V12.8171L5.95713 12.8171L5.95712 11.3171ZM5.95712 6.68363V5.18363H4.45712V6.68363H5.95712ZM12.7226 6.68363V8.18363H14.2226V6.68363H12.7226ZM12.7226 4.24393L13.8105 3.21121L11.2226 0.485096V4.24393H12.7226ZM17.2376 9.00005L18.3255 10.0328L19.3058 9.00005L18.3255 7.96733L17.2376 9.00005ZM12.7226 13.7562H11.2226V17.515L13.8105 14.7889L12.7226 13.7562ZM12.7226 11.317H14.2226V9.81703L12.7226 9.81704L12.7226 11.317ZM19.5878 7.9674L12.9178 0.940886L10.742 3.00629L17.412 10.0328L19.5878 7.9674ZM10.3299 1.97359V5.74331H13.3299V1.97359H10.3299ZM11.8299 4.24331H5.06439V7.24331H11.8299V4.24331ZM3.56439 5.74331V12.2574H6.56439V5.74331H3.56439ZM5.06439 13.7574H11.8299V10.7574H5.06439V13.7574ZM10.3299 12.2574V16.0271H13.3299V12.2574H10.3299ZM12.9178 17.0597L19.5878 10.0328L17.4119 7.96743L10.742 14.9944L12.9178 17.0597ZM7.45712 11.3171V6.68363H4.45712V11.3171H7.45712ZM5.95712 8.18363H12.7226V5.18363H5.95712V8.18363ZM14.2226 6.68363V4.24393H11.2226V6.68363H14.2226ZM11.6347 5.27665L16.1497 10.0328L18.3255 7.96733L13.8105 3.21121L11.6347 5.27665ZM16.1497 7.96733L11.6347 12.7235L13.8105 14.7889L18.3255 10.0328L16.1497 7.96733ZM14.2226 13.7562V11.317H11.2226V13.7562H14.2226ZM12.7226 9.81704L5.95711 9.81709L5.95713 12.8171L12.7226 12.817L12.7226 9.81704Z" fill="white" mask="url(#path-3-inside-2_82_112)"/>
</svg>
